<svg height="512pt" viewBox="-26 0 512 512.00014" width="512pt" xmlns="http://www.w3.org/2000/svg"><path d="m454.625 474.582031c5.921875 5.925781 5.921875 15.507813 0 21.429688l-11.542969 11.542969c-5.921875 5.921874-15.503906 5.921874-21.429687 0l-107.035156-107.035157-7.859376-10.160156 32.652344-30.785156 8.179688 7.972656zm0 0" fill="#c1c7c9"/><path d="m355.597656 375.554688-8.007812-8.007813-8.179688-7.972656-32.652344 30.785156 7.859376 10.160156 107.050781 107.046875c5.917969 5.921875 15.523437 5.910156 21.429687-.027344l-88.324218-90.089843c-11.503907-11.730469-11.132813-30.621094.824218-41.894531zm0 0" fill="#adb1b2"/><path d="m365.4375 273.042969c0 80.261719-65.0625 145.324219-145.324219 145.324219-80.257812 0-145.320312-65.0625-145.320312-145.324219 0-80.257813 65.0625-145.320313 145.320312-145.320313 80.261719 0 145.324219 65.0625 145.324219 145.320313zm0 0" fill="#76b1cb"/><path d="m275.796875 389.515625c-80.261719 0-145.324219-65.058594-145.324219-145.320313 0-44.855468 20.324219-84.953124 52.257813-111.609374-62.144531 16.496093-107.9375 73.125-107.9375 140.457031 0 80.261719 65.058593 145.324219 145.320312 145.324219 35.410157 0 67.855469-12.671876 93.066407-33.714844-11.929688 3.167968-24.457032 4.863281-37.382813 4.863281zm0 0" fill="#5ba1ba"/><path d="m85.136719 166.980469h270.113281v142.390625h-270.113281zm0 0" fill="#d4d7d8"/><path d="m130.472656 244.195312c0-28.378906 8.144532-54.84375 22.207032-77.214843h-31.890626c-15.414062 14.433593-27.675781 32.1875-35.652343 52.121093v90.269532h60.746093c-9.855468-19.605469-15.410156-41.742188-15.410156-65.175782zm0 0" fill="#bebfbf"/><path d="m439.582031 12.640625v256.003906c0 6.976563-5.667969 12.640625-12.644531 12.640625h-414.296875c-6.984375 0-12.640625-5.664062-12.640625-12.640625v-256.003906c0-6.972656 5.65625-12.640625 12.640625-12.640625h414.296875c6.976562 0 12.644531 5.667969 12.644531 12.640625zm0 0" fill="#e6e6e6"/><path d="m74.792969 273.042969c0 2.769531.085937 5.515625.238281 8.242187h60.226562c-3.117187-11.839844-4.78125-24.269531-4.78125-37.089844 0-44.855468 20.320313-84.953124 52.253907-111.609374-62.144531 16.496093-107.9375 73.125-107.9375 140.457031zm0 0" fill="#dbdbdb"/><path d="m130.472656 244.195312c0-3.992187.167969-7.941406.484375-11.851562h-47.152343c-1.074219 0-2.113282-.148438-3.109376-.398438-3.835937 13.03125-5.902343 26.824219-5.902343 41.097657 0 2.769531.085937 5.515625.238281 8.242187h60.226562c-3.117187-11.839844-4.785156-24.269531-4.785156-37.089844zm0 0" fill="#dbdbdb"/><path d="m426.9375 0h-414.296875c-6.984375 0-12.640625 5.667969-12.640625 12.640625v36.078125h439.582031v-36.078125c0-6.972656-5.667969-12.640625-12.644531-12.640625zm0 0" fill="#fe6c56"/><path d="m42.894531 24.730469c0 4.550781-3.691406 8.242187-8.242187 8.242187-4.554688 0-8.246094-3.691406-8.246094-8.242187 0-4.554688 3.691406-8.246094 8.246094-8.246094 4.550781 0 8.242187 3.691406 8.242187 8.246094zm0 0" fill="#ed3426"/><path d="m72.257812 25.242188c0 4.554687-3.6875 8.246093-8.242187 8.246093-4.550781 0-8.242187-3.691406-8.242187-8.246093 0-4.550782 3.691406-8.242188 8.242187-8.242188 4.554687 0 8.242187 3.691406 8.242187 8.242188zm0 0" fill="#f3c957"/><path d="m101.625 25.757812c0 4.554688-3.691406 8.242188-8.242188 8.242188-4.554687 0-8.246093-3.6875-8.246093-8.242188 0-4.550781 3.691406-8.242187 8.246093-8.242187 4.550782 0 8.242188 3.691406 8.242188 8.242187zm0 0" fill="#35c982"/><g fill="#c6c2be"><path d="m61.441406 105.613281h-23.699218c-4.269532 0-7.726563-3.460937-7.726563-7.730469 0-4.265624 3.457031-7.726562 7.726563-7.726562h23.699218c4.265625 0 7.726563 3.460938 7.726563 7.726562 0 4.269532-3.460938 7.730469-7.726563 7.730469zm0 0"/><path d="m132.535156 105.613281h-42.246094c-4.265624 0-7.726562-3.460937-7.726562-7.730469 0-4.265624 3.460938-7.726562 7.726562-7.726562h42.246094c4.265625 0 7.726563 3.460938 7.726563 7.726562 0 4.269532-3.460938 7.730469-7.726563 7.730469zm0 0"/><path d="m401.457031 105.613281h-102.003906c-4.269531 0-7.730469-3.460937-7.730469-7.730469 0-4.265624 3.460938-7.726562 7.730469-7.726562h102.003906c4.269531 0 7.726563 3.460938 7.726563 7.726562 0 4.269532-3.457032 7.730469-7.726563 7.730469zm0 0"/><path d="m48.046875 150.945312h-10.304687c-4.269532 0-7.726563-3.457031-7.726563-7.726562 0-4.265625 3.457031-7.726562 7.726563-7.726562h10.304687c4.265625 0 7.726563 3.460937 7.726563 7.726562 0 4.269531-3.460938 7.726562-7.726563 7.726562zm0 0"/><path d="m401.457031 150.945312h-42.246093c-4.265626 0-7.726563-3.457031-7.726563-7.726562 0-4.265625 3.460937-7.726562 7.726563-7.726562h42.246093c4.269531 0 7.726563 3.460937 7.726563 7.726562 0 4.269531-3.457032 7.726562-7.726563 7.726562zm0 0"/><path d="m57.320312 199.375h-19.578124c-4.269532 0-7.726563-3.460938-7.726563-7.730469 0-4.265625 3.457031-7.726562 7.726563-7.726562h19.578124c4.265626 0 7.726563 3.460937 7.726563 7.726562 0 4.269531-3.460937 7.730469-7.726563 7.730469zm0 0"/><path d="m292.238281 215.859375h-143.21875c-4.265625 0-7.726562-3.460937-7.726562-7.726563 0-4.269531 3.460937-7.730468 7.726562-7.730468h143.21875c4.269531 0 7.730469 3.460937 7.730469 7.730468 0 4.265626-3.460938 7.726563-7.730469 7.726563zm0 0"/><path d="m142.839844 263.253906h-18.546875c-4.269531 0-7.730469-3.457031-7.730469-7.726562 0-4.265625 3.460938-7.726563 7.730469-7.726563h18.546875c4.265625 0 7.726562 3.460938 7.726562 7.726563 0 4.269531-3.460937 7.726562-7.726562 7.726562zm0 0"/><path d="m314.90625 263.253906h-140.128906c-4.265625 0-7.726563-3.457031-7.726563-7.726562 0-4.265625 3.460938-7.726563 7.726563-7.726563h140.128906c4.269531 0 7.730469 3.460938 7.730469 7.726563 0 4.269531-3.460938 7.726562-7.730469 7.726562zm0 0"/><path d="m168.355469 150.945312h-98.671875c-4.269532 0-7.726563-3.457031-7.726563-7.726562 0-4.265625 3.457031-7.726562 7.726563-7.726562h98.671875c4.269531 0 7.730469 3.460937 7.730469 7.726562 0 4.269531-3.460938 7.726562-7.730469 7.726562zm0 0"/></g><path d="m220.113281 114.371094c87.632813 0 158.675781 71.042968 158.675781 158.671875 0 87.632812-71.042968 158.675781-158.675781 158.675781-87.628906 0-158.671875-71.042969-158.671875-158.675781 0-87.628907 71.042969-158.671875 158.671875-158.671875zm129.828125 158.671875c0-71.703125-58.125-129.824219-129.828125-129.824219-71.699219 0-129.824219 58.121094-129.824219 129.824219s58.125 129.824219 129.824219 129.824219c71.703125 0 129.828125-58.121094 129.828125-129.824219zm0 0" fill="#254f5d"/></svg>